<?xml version="1.0" encoding="UTF-8" standalone="no"?>
<svg
   xmlns:dc="http://purl.org/dc/elements/1.1/"
   xmlns:cc="http://creativecommons.org/ns#"
   xmlns:rdf="http://www.w3.org/1999/02/22-rdf-syntax-ns#"
   xmlns:svg="http://www.w3.org/2000/svg"
   xmlns="http://www.w3.org/2000/svg"
   xmlns:sodipodi="http://sodipodi.sourceforge.net/DTD/sodipodi-0.dtd"
   xmlns:inkscape="http://www.inkscape.org/namespaces/inkscape"
   version="1.1"
   x="0px"
   y="0px"
   viewBox="0 0 82.311226 90.833"
   enable-background="new 0 0 100 100"
   xml:space="preserve"
   id="svg2"
   inkscape:version="0.91 r13725"
   sodipodi:docname="bio.svg"
   width="82.311226"
   height="90.833"><metadata
     id="metadata16"><rdf:RDF><cc:Work
         rdf:about=""><dc:format>image/svg+xml</dc:format><dc:type
           rdf:resource="http://purl.org/dc/dcmitype/StillImage" /><dc:title></dc:title></cc:Work></rdf:RDF></metadata><defs
     id="defs14" /><sodipodi:namedview
     pagecolor="#ffffff"
     bordercolor="#666666"
     borderopacity="1"
     objecttolerance="10"
     gridtolerance="10"
     guidetolerance="10"
     inkscape:pageopacity="0"
     inkscape:pageshadow="2"
     inkscape:window-width="2558"
     inkscape:window-height="1438"
     id="namedview12"
     showgrid="false"
     inkscape:zoom="1.888"
     inkscape:cx="60.488855"
     inkscape:cy="75.705881"
     inkscape:window-x="0"
     inkscape:window-y="0"
     inkscape:window-maximized="0"
     inkscape:current-layer="svg2"
     fit-margin-top="0"
     fit-margin-left="0"
     fit-margin-right="0"
     fit-margin-bottom="0" /><g
     id="g4"
     transform="translate(-8.8437722,-5)"><path
       d="M 79.723,95.833 C 77.948,91.102 74.764,67.817 77.528,63.579 l 0.505,-0.766 c 7.32,-11.113 9.529,-14.468 9.529,-25.788 0,-10.993 -9.71,-28.433 -35.764,-28.433 -19.219,0 -29.207,7.734 -30.535,23.644 -0.113,1.354 -0.053,3.733 0.004,6.033 0.145,5.836 0.13,8.521 -0.628,9.883 -1.11,2.728 -3.746,5.523 -5.871,7.777 -0.651,0.693 -1.474,1.564 -1.972,2.173 0.488,0.303 1.182,0.67 1.7,0.942 2.011,1.059 3.91,2.059 4.55,3.651 0.43,1.07 0.098,2.31 -0.5,4.225 -0.007,0.023 -0.015,0.046 -0.022,0.07 2.452,0.642 2.955,1.54 3.091,2.36 0.058,0.349 0.137,1.552 -1.282,2.325 l -0.163,0.079 c -0.276,0.116 -0.453,0.223 -0.565,0.305 1.448,0.928 3.605,2.615 3.812,4.531 0.095,0.875 -0.198,1.699 -0.828,2.339 -1.126,1.489 -0.953,2.58 -0.703,3.151 0.232,0.091 0.48,0.237 0.736,0.459 2.289,1.985 6.486,2.576 11.808,1.65 14.981,-2.676 15.556,-11.965 15.573,-12.36 l 0,-11.909 3.591,0 0,11.972 C 53.58,72.453 53.047,84.511 35.053,87.726 30.765,88.468 24.963,88.696 20.962,85.8 20.507,85.735 19.97,85.488 19.426,84.855 18.268,83.513 17.05,80.324 19.703,76.79 19.278,76.241 18.148,75.338 17.084,74.726 l -0.338,-0.193 -0.228,-0.317 c -0.165,-0.23 -0.966,-1.456 -0.529,-3.008 0.076,-0.268 0.199,-0.572 0.395,-0.886 -0.545,-0.046 -0.926,-0.31 -1.073,-0.43 -1.162,-0.945 -0.735,-2.315 -0.194,-4.046 0.165,-0.528 0.453,-1.454 0.516,-1.913 -0.43,-0.459 -1.961,-1.266 -2.811,-1.715 -2.231,-1.173 -4.157,-2.189 -3.965,-4.123 0.121,-1.219 1.098,-2.301 3.297,-4.633 1.95,-2.068 4.377,-4.64 5.194,-6.759 l 0.204,-0.384 c 0.301,-0.793 0.189,-5.281 0.123,-7.962 -0.062,-2.506 -0.121,-4.873 0.008,-6.42 C 19.176,14.063 30.654,5 51.799,5 80.47,5 91.155,24.643 91.155,37.024 c 0,12.397 -2.757,16.581 -10.122,27.764 l -0.5,0.758 c -1.643,2.655 0.475,25.056 2.427,30.256 l -3.237,0.031 z"
       id="path6"
       inkscape:connector-curvature="0" /></g></svg>