<?xml version="1.0" encoding="UTF-8" standalone="no"?>
<svg
   xmlns:dc="http://purl.org/dc/elements/1.1/"
   xmlns:cc="http://creativecommons.org/ns#"
   xmlns:rdf="http://www.w3.org/1999/02/22-rdf-syntax-ns#"
   xmlns:svg="http://www.w3.org/2000/svg"
   xmlns="http://www.w3.org/2000/svg"
   height="64"
   width="64.000038"
   id="svg2"
   xml:space="preserve"
   enable-background="new 0 0 64 64"
   viewBox="0 0 64.000038 64"
   y="0px"
   x="0px"
   version="1.1"><metadata
     id="metadata22"><rdf:RDF><cc:Work
         rdf:about=""><dc:format>image/svg+xml</dc:format><dc:type
           rdf:resource="http://purl.org/dc/dcmitype/StillImage" /><dc:title></dc:title></cc:Work></rdf:RDF></metadata><defs
     id="defs20" /><g
     transform="translate(3.937103e-5,0)"
     id="g4"><path
       id="path6"
       d="m 2.632,56.895 c 2.035,-2.367 10.428,-11.32 20.401,-10.559 0,0 1.111,-8.454 7.043,-14.441 L 24.298,27.582 18.521,23.267 C 14.515,30.691 6.77,34.19 6.77,34.19 10.365,43.562 4.239,54.207 2.565,56.844 1.846,56.335 0.85,56.489 0.322,57.201 c -0.537,0.725 -0.387,1.749 0.335,2.288 0.722,0.539 1.742,0.389 2.278,-0.336 0.528,-0.712 0.39,-1.713 -0.303,-2.258 z M 15.599,35.213 c 0.806,-1.088 2.336,-1.313 3.418,-0.505 1.083,0.809 1.308,2.345 0.502,3.433 -0.806,1.087 -2.335,1.313 -3.418,0.504 -1.082,-0.809 -1.308,-2.345 -0.502,-3.432 z" /><polygon
       id="polygon8"
       points="33.075,31.69 35.561,28.337 20.338,16.971 17.853,20.324 " /><path
       id="path10"
       d="m 63.778,54.244 c -2.436,-1.733 -4.361,-3.1 -7.947,-2.828 -2.424,0.186 -3.846,1.462 -5.223,2.696 -0.359,0.321 -0.73,0.654 -1.123,0.973 -2.479,2.009 -4.604,3.547 -7.471,3.547 -0.008,0 -0.016,0 -0.022,0 -1.488,-0.005 -2.317,-0.396 -3.572,-0.988 -0.501,-0.236 -1.068,-0.505 -1.73,-0.766 -6.073,-2.396 -11.804,-1.766 -18.587,2.044 -3.544,1.99 -8.79,3.82 -13.653,1.235 L 3.243,62.446 C 5.195,63.484 7.351,64 9.631,64 c 3.085,0 6.396,-0.944 9.73,-2.817 6.127,-3.44 11.027,-4.008 16.384,-1.894 0.583,0.23 1.088,0.469 1.576,0.699 1.338,0.631 2.603,1.229 4.662,1.233 0.011,0 0.021,0 0.03,0 3.699,0 6.412,-1.949 9.092,-4.121 0.443,-0.359 0.84,-0.714 1.221,-1.058 1.246,-1.117 2.148,-1.926 3.699,-2.043 2.66,-0.207 4.016,0.76 6.262,2.356 L 62.51,56.514 64,54.399 63.778,54.244 Z" /><polygon
       id="polygon12"
       points="36.677,26.831 56.556,0 32.911,0 21.454,15.464 " /></g></svg>